<svg width="59" height="36" viewBox="0 0 59 36" fill="none" xmlns="http://www.w3.org/2000/svg">
<path d="M48.3104 18.8378C47.6789 17.3778 46.8254 16.1067 45.6922 14.9437C44.5412 13.8274 43.2685 12.9778 41.7954 12.343C40.2585 11.7096 38.6496 11.3882 37.0117 11.3882C35.3605 11.3882 33.759 11.7104 32.2525 12.3459C30.752 12.9785 29.4748 13.8326 28.3438 14.9615C27.2054 16.1311 26.3193 17.437 25.7071 18.8504C25.0726 20.3844 24.7505 21.9911 24.7505 23.6259C24.7505 25.2741 25.0733 26.8726 25.71 28.377C26.3193 29.8185 27.2084 31.1274 28.352 32.2689C29.4956 33.4104 30.8076 34.2978 32.2518 34.9067C33.7583 35.5415 35.3598 35.8637 37.011 35.8637C38.6496 35.8637 40.2614 35.5415 41.8073 34.9037C43.2121 34.2985 44.5204 33.4133 45.7004 32.2689C46.8254 31.1467 47.6796 29.8733 48.3126 28.377C48.9486 26.8726 49.2715 25.2741 49.2715 23.6259C49.2715 21.9904 48.9486 20.3822 48.3126 18.8444L48.3104 18.8378ZM43.5943 23.6259C43.5943 25.3696 42.9063 27.0163 41.6574 28.263C40.4084 29.5096 38.7587 30.1963 37.0117 30.1963C35.2648 30.1963 33.6151 29.5096 32.3661 28.263C31.1171 27.0163 30.4292 25.3696 30.4292 23.6259C30.4292 21.8822 31.1171 20.2356 32.3668 18.9889C33.6158 17.7422 35.2655 17.0556 37.0125 17.0556C38.7594 17.0556 40.4091 17.7422 41.6581 18.9889C42.9063 20.2356 43.5943 21.8822 43.5943 23.6259Z" fill="#00A89F"/>
<path d="M53.0896 10.1356C53.2046 10.1482 53.3189 10.1541 53.4332 10.1541C54.1931 10.1541 54.9315 9.87704 55.4993 9.36889C56.1531 8.78445 56.5278 7.94741 56.5278 7.07259C56.5278 5.37259 55.1423 3.99037 53.4399 3.99037C52.5635 3.99037 51.7241 4.36445 51.1393 5.01704C50.5545 5.66889 50.2748 6.54519 50.3712 7.42148C50.5278 8.83704 51.6707 9.97852 53.0896 10.1356Z" fill="#00A89F"/>
<path d="M28.5813 6.55927H24.4128C23.9253 6.55927 23.5186 6.92741 23.4696 7.41112C23.0815 11.2304 20.1145 14.2096 16.5249 14.2096C12.9353 14.2096 9.96831 11.2304 9.58018 7.41112C9.5312 6.92741 9.12378 6.55927 8.63695 6.55927H4.46775C3.91191 6.55927 3.48074 7.03334 3.52007 7.58667C3.93046 13.3689 7.77758 18.1585 12.9175 19.7148C13.319 19.8363 13.595 20.203 13.595 20.6215V35.1696C13.595 35.6933 14.0203 36.1185 14.5457 36.1185H18.729C19.2537 36.1185 19.6796 35.6941 19.6796 35.1696V20.5533C19.6796 20.1407 19.9475 19.7785 20.3416 19.6511C25.3768 18.0304 29.1253 13.2896 29.5297 7.58519C29.5691 7.0326 29.1371 6.55927 28.5813 6.55927Z" fill="#00A89F"/>
<path d="M51.6995 35.82H55.1838C55.7656 35.82 56.2368 35.3548 56.2368 34.7807V12.3859C56.2368 11.8119 55.7656 11.3467 55.1838 11.3467H51.6995C51.1185 11.3467 50.6465 11.8119 50.6465 12.3859V34.7815C50.6465 35.3548 51.1177 35.82 51.6995 35.82Z" fill="#00A89F"/>
</svg>