<svg width="175" height="50" viewBox="0 0 175 50" fill="none" xmlns="http://www.w3.org/2000/svg">
  <path d="M84.711 12.0577C90.332 12.0577 95.8824 11.8935 101.417 12.119C104.786 12.2548 107.922 13.4549 109.761 16.5841C112.792 21.7412 111.233 30.3078 102.89 31.4991C99.6805 31.959 96.3894 31.8517 93.1337 31.9852C92.3313 32.0203 91.5267 31.9852 90.5679 31.9852V35.9379C90.5679 37.289 90.5436 38.6423 90.5789 39.9935C90.5965 40.6789 90.3915 40.9942 89.6464 40.9767C88.0329 40.9373 86.4171 40.9636 84.711 40.9636V12.0577ZM90.548 26.9639C93.8545 26.9639 96.9604 27.0362 100.066 26.9442C103.593 26.8369 104.975 25.5734 105.22 22.0981C105.405 19.4703 104.237 17.2695 101.252 17.1316C97.8862 16.9761 94.507 17.1053 91.1344 17.0856C90.2769 17.0856 90.3254 17.6287 90.343 18.1915C90.4069 20.366 90.4819 22.5383 90.5392 24.7128C90.5612 25.4705 90.548 26.2282 90.548 26.9639Z" fill="#E01783"/>
  <path d="M169.074 21.2638L159.847 30.4502L169.784 40.9614C167.743 40.9614 165.924 41.0183 164.115 40.9198C163.714 40.8979 163.299 40.3723 162.964 40.011C160.98 37.8694 158.996 35.7102 157.043 33.5817C153.94 35.1408 153.655 37.8343 154.178 40.8804H148.843V12.1016H154.019V29.2217C154.68 28.5845 155.106 28.1662 155.533 27.7458C157.539 25.7647 159.547 23.7851 161.558 21.8069C161.778 21.5879 162.076 21.2945 162.34 21.2879C164.525 21.2419 166.711 21.2638 169.074 21.2638Z" fill="#E01783"/>
  <path d="M123.652 21.3142H129.119V23.5566C129.661 23.1449 130.045 22.8493 130.442 22.5646C134.207 19.7879 142.363 21.0229 143.906 27.899C144.089 28.8256 144.177 29.7686 144.166 30.713C144.194 33.7787 144.166 36.8445 144.166 39.9103C144.166 40.23 144.128 40.5497 144.106 40.9132H139.056V39.746C139.056 36.7876 139.072 33.8335 139.056 30.8706C139.038 28.2625 137.89 26.4515 135.878 25.7727C132.448 24.6165 129.161 26.9377 129.152 30.5334C129.152 33.6364 129.124 36.7416 129.168 39.8468C129.179 40.703 128.936 41.0337 128.043 40.9811C126.871 40.9154 125.694 40.9483 124.516 40.9702C123.924 40.9833 123.635 40.7818 123.635 40.1533C123.657 33.9189 123.652 27.6757 123.652 21.3142Z" fill="#E01783"/>
  <path d="M9.88359 12.0819H15.6413V13.3586C15.6413 20.1865 15.6413 27.0137 15.6413 33.8401C15.6413 35.8438 15.3216 35.6664 17.4312 35.6708C21.0286 35.6708 24.626 35.6708 28.3094 35.6708V40.8936C28.0479 40.9324 27.7845 40.9573 27.5203 40.968C21.939 40.968 16.3555 40.968 10.7675 40.9834C10.1062 40.9834 9.77338 40.8564 9.77558 40.1074C9.79469 30.9422 9.80129 21.7778 9.79542 12.614C9.81297 12.4349 9.84243 12.2572 9.88359 12.0819Z" fill="#E01783"/>
  <path d="M42.5293 40.9723V12.13H47.7976V13.1548C47.7976 21.9886 47.7778 30.8246 47.8196 39.6519C47.8196 40.7293 47.4934 41.0534 46.4464 40.9833C45.1921 40.9088 43.9401 40.9723 42.5293 40.9723Z" fill="#E01783"/>
  <path d="M67.0501 27.1654H65.5864C63.6025 27.1654 62.8751 26.4099 62.7979 24.3887C62.7142 22.2602 63.5739 20.6244 65.4211 19.593C67.2683 18.5616 69.1243 18.717 70.89 19.8842C71.0729 20.0069 71.2603 20.1185 71.4939 20.2674C73.0215 19.0806 74.7453 18.6908 76.6057 19.3236C79.7315 20.3901 81.043 24.2551 79.1627 26.9443C77.871 28.791 76.5132 30.5896 75.0892 32.34C73.4381 34.3744 69.8561 34.5299 68.0067 32.6926C67.3454 32.0356 66.8362 31.2363 66.111 30.3166C67.1779 30.2268 67.9957 30.1217 68.8157 30.1108C69.0361 30.1108 69.3161 30.3495 69.5013 30.5487C70.5174 31.6174 72.2368 31.6787 73.156 30.5378C74.4786 28.8932 75.7483 27.1961 76.9562 25.4639C77.7652 24.3055 77.4368 22.9259 76.3082 22.1025C75.8097 21.7548 75.1988 21.6039 74.5945 21.6792C73.9902 21.7545 73.4357 22.0506 73.0392 22.5098C72.4859 23.1361 72.0098 23.8237 71.4058 24.6143C70.9495 23.9792 70.524 23.3814 70.0832 22.7836C69.1397 21.4697 67.6761 21.1718 66.4593 22.0237C65.2976 22.8383 65.0882 24.3033 65.9567 25.5975C66.2763 26.0596 66.607 26.5282 67.0501 27.1654Z" fill="#E01783"/>
  <path d="M37.1662 21.3383V40.9132H32.0169V21.3383H37.1662Z" fill="#E01783"/>
  <path d="M58.1403 21.334V40.9111H52.9667V21.334H58.1403Z" fill="#E01783"/>
  <path d="M119.153 40.922H114.011V21.3142H119.153V40.922Z" fill="#E01783"/>
  <path d="M32.0169 12.0863H37.1486V18.3536H32.0169V12.0863Z" fill="#E01783"/>
  <path d="M58.116 18.3667H52.9424V12.1322H58.116V18.3667Z" fill="#E01783"/>
  <path d="M119.162 18.3951H114.042V12.1278H119.162V18.3951Z" fill="#E01783"/>
</svg>
